<mxfile host="app.diagrams.net" modified="2022-11-03T08:48:30.399Z" agent="5.0 (Windows NT 10.0; Win64; x64) AppleWebKit/537.36 (KHTML, like Gecko) Chrome/106.0.0.0 Safari/537.36" etag="hTZkpnZHxooazlnaamKs" version="16.2.6" type="github">
  <diagram id="VMW_MKEsj26E0AsfagEO" name="Page-1">
    <mxGraphModel dx="1278" dy="571" grid="1" gridSize="10" guides="1" tooltips="1" connect="1" arrows="1" fold="1" page="1" pageScale="1" pageWidth="827" pageHeight="1169" math="0" shadow="0">
      <root>
        <mxCell id="0" />
        <mxCell id="1" parent="0" />
        <mxCell id="7KKrrYXGsuPPvqbZCahh-1" value="NodeMesh" style="rounded=0;whiteSpace=wrap;html=1;" vertex="1" parent="1">
          <mxGeometry x="80" y="240" width="160" height="120" as="geometry" />
        </mxCell>
        <mxCell id="7KKrrYXGsuPPvqbZCahh-2" value="RaspberryPi" style="rounded=0;whiteSpace=wrap;html=1;" vertex="1" parent="1">
          <mxGeometry x="480" y="240" width="160" height="120" as="geometry" />
        </mxCell>
      </root>
    </mxGraphModel>
  </diagram>
</mxfile>
